<svg xmlns="http://www.w3.org/2000/svg" viewBox="0 0 280 280" fill="none" shape-rendering="auto"><metadata xmlns:rdf="http://www.w3.org/1999/02/22-rdf-syntax-ns#" xmlns:xsi="http://www.w3.org/2001/XMLSchema-instance" xmlns:dc="http://purl.org/dc/elements/1.1/" xmlns:dcterms="http://purl.org/dc/terms/"><rdf:RDF><rdf:Description><dc:title>Avataaars</dc:title><dc:creator>Pablo Stanley</dc:creator><dc:source xsi:type="dcterms:URI">https://avataaars.com/</dc:source><dcterms:license xsi:type="dcterms:URI">https://avataaars.com/</dcterms:license><dc:rights>Remix of „Avataaars” (https://avataaars.com/) by „Pablo Stanley”, licensed under „Free for personal and commercial use” (https://avataaars.com/)</dc:rights></rdf:Description></rdf:RDF></metadata><mask id="viewboxMask"><rect width="280" height="280" rx="0" ry="0" x="0" y="0" fill="#fff" /></mask><g mask="url(#viewboxMask)"><g transform="translate(8)"><path d="M132 36a56 56 0 0 0-56 56v6.17A12 12 0 0 0 66 110v14a12 12 0 0 0 10.3 11.88 56.04 56.04 0 0 0 31.7 44.73v18.4h-4a72 72 0 0 0-72 72v9h200v-9a72 72 0 0 0-72-72h-4v-18.39a56.04 56.04 0 0 0 31.7-44.73A12 12 0 0 0 198 124v-14a12 12 0 0 0-10-11.83V92a56 56 0 0 0-56-56Z" fill="#ae5d29"/><path d="M108 180.61v8a55.79 55.79 0 0 0 24 5.39c8.59 0 16.73-1.93 24-5.39v-8a55.79 55.79 0 0 1-24 5.39 55.79 55.79 0 0 1-24-5.39Z" fill="#000" fill-opacity=".1"/><g transform="translate(0 170)"><path d="M108 14.7c-15.52 3.68-27.1 10.83-30.77 19.44A72.02 72.02 0 0 0 32 101v9h200v-9a72.02 72.02 0 0 0-45.23-66.86C183.1 25.53 171.52 18.38 156 14.7V32a24 24 0 1 1-48 0V14.7Z" fill="#25557c"/><path d="M102 63.34a67.1 67.1 0 0 1-7-2.82V110h7V63.34ZM162 63.34a67.04 67.04 0 0 0 7-2.82V98.5a3.5 3.5 0 1 1-7 0V63.34Z" fill="#F4F4F4"/><path d="M187.62 34.49a71.79 71.79 0 0 1 10.83 5.63C197.11 55.62 167.87 68 132 68c30.93 0 56-13.43 56-30 0-1.19-.13-2.36-.38-3.51ZM76.38 34.49a16.48 16.48 0 0 0-.38 3.5c0 16.58 25.07 30 56 30-35.87 0-65.1-12.38-66.45-27.88a71.79 71.79 0 0 1 10.83-5.63Z" fill="#000" fill-opacity=".16"/></g><g transform="translate(78 134)"><path d="M28 26.24c1.36.5 2.84.76 4.4.76 5.31 0 9.81-3.15 11.29-7.49 2.47 2.17 6.17 3.54 10.31 3.54 4.14 0 7.84-1.37 10.31-3.53 1.48 4.35 5.98 7.5 11.3 7.5 1.55 0 3.03-.27 4.4-.76h-.19c-6.33 0-11.8-4.9-11.8-10.56 0-4.18 2.32-7.72 5.69-9.68-5.5.8-9.73 5-9.9 10.1a17.61 17.61 0 0 1-9.8 2.8c-3.8 0-7.25-1.06-9.8-2.8-.18-5.1-4.4-9.3-9.9-10.1a11.18 11.18 0 0 1 5.68 9.68c0 5.66-5.47 10.57-11.8 10.57H28Z" fill="#000" fill-opacity=".6" opacity=".6"/><path d="M17 24a9 9 0 1 0 0-18 9 9 0 0 0 0 18ZM91 24a9 9 0 1 0 0-18 9 9 0 0 0 0 18Z" fill="#FF4646" fill-opacity=".2"/></g><g transform="translate(104 122)"><path fill-rule="evenodd" clip-rule="evenodd" d="M16 8c0 4.42 5.37 8 12 8s12-3.58 12-8" fill="#000" fill-opacity=".16"/></g><g transform="translate(76 90)"><path d="M34.5 30.7 29 25.2l-5.5 5.5c-.4.4-1.1.4-1.6 0l-1.6-1.6c-.4-.4-.4-1.1 0-1.6l5.5-5.5-5.5-5.5c-.4-.5-.4-1.2 0-1.6l1.6-1.6c.4-.4 1.1-.4 1.6 0l5.5 5.5 5.5-5.5c.4-.4 1.1-.4 1.6 0l1.6 1.6c.4.4.4 1.1 0 1.6L32.2 22l5.5 5.5c.4.4.4 1.1 0 1.6l-1.6 1.6c-.4.4-1.1.4-1.6 0ZM88.5 30.7 83 25.2l-5.5 5.5c-.4.4-1.1.4-1.6 0l-1.6-1.6c-.4-.4-.4-1.1 0-1.6l5.5-5.5-5.5-5.5c-.4-.5-.4-1.2 0-1.6l1.6-1.6c.4-.4 1.1-.4 1.6 0l5.5 5.5 5.5-5.5c.4-.4 1.1-.4 1.6 0l1.6 1.6c.4.4.4 1.1 0 1.6L86.2 22l5.5 5.5c.4.4.4 1.1 0 1.6l-1.6 1.6c-.4.4-1.1.4-1.6 0Z" fill="#000" fill-opacity=".6"/></g><g transform="translate(76 82)"><g fill-rule="evenodd" clip-rule="evenodd" fill="#DADADA"><path d="M57 12.82ZM96.12 7.6c1.46.56 9.19 6.43 7.86 9.16a.8.8 0 0 1-1.29.22 10.63 10.63 0 0 0-1.7-1.19c-5.1-2.84-11.3-1.93-16.73-.91-6.12 1.14-12.11 3.48-18.39 2.67-2.04-.26-6.08-1.22-7.63-2.96-.47-.53-.06-1.38.64-1.43 1.44-.11 2.86-.86 4.33-1.28 3.65-1.03 7.4-1.56 11.11-2.29 6.62-1.3 15.17-4.53 21.8-2Z"/><path d="M58.76 12.76c-1.17.04-2.8 3.56-.56 3.68 2.23.11 1.73-3.72.56-3.68ZM55 12.8c0-.01 0-.01 0 0ZM15.88 7.56c-1.46.56-9.19 6.43-7.86 9.16.24.5.89.6 1.29.22.55-.52 1.58-1.11 1.71-1.18 5.1-2.84 11.3-1.93 16.73-.91 6.12 1.14 12.11 3.48 18.39 2.67 2.04-.26 6.08-1.22 7.63-2.96.47-.53.06-1.38-.64-1.43-1.44-.11-2.86-.86-4.33-1.28-3.65-1.03-7.4-1.56-11.11-2.29-6.62-1.3-15.17-4.53-21.8-2Z"/><path d="M54.97 11.79c1.17.04 2.77 4.5.53 4.67-2.24.18-1.7-4.71-.53-4.67Z"/></g></g><g transform="translate(-1)"><path d="M94.7 69.39c-4.62 24.47-16 42.72-25.74 41a7.49 7.49 0 0 1-1.96-.63V89a65.93 65.93 0 0 1 28.4-54.24c.48 2.39.83 4.99 1.05 7.77a262.85 262.85 0 0 1 36.9-2.44c13.27 0 25.67.85 36.22 2.34.22-2.74.57-5.3 1.05-7.67A65.92 65.92 0 0 1 199 89v20.76c-.62.3-1.28.52-1.95.63-9.72 1.72-21.09-16.48-25.73-40.9a260.5 260.5 0 0 1-37.97 2.59c-14.3 0-27.6-1-38.65-2.7Z" fill="#000" fill-opacity=".16"/><path d="M133 0c-11.21 0-21.9 2.2-31.69 6.18-.92-.12-1.86-.18-2.81-.18-6.7 0-12.77 3.07-17.2 8.06-18.04.93-33.46 13.3-40.77 30.9C32.5 49.56 27 59.04 27 70c0 .58.02 1.15.05 1.73A62.11 62.11 0 0 0 17 106c0 7.33 1.21 14.34 3.43 20.78-.28 1.69-.43 3.44-.43 5.22 0 9.45 4.1 17.81 10.38 22.88C37.74 172.68 53.6 185 72 185c1.5 0 2.98-.08 4.44-.24C81.9 189.9 88.88 193 96.5 193c4.44 0 8.67-1.05 12.5-2.95v-9.44a56.03 56.03 0 0 1-31.8-45.74A12 12 0 0 1 67 123v-13c0-1.72.36-3.36 1.02-4.84.3.1.62.18.94.23 9.73 1.72 21.12-16.53 25.74-41 11.05 1.7 24.35 2.7 38.65 2.7 14.02 0 27.06-.96 37.97-2.6 4.64 24.41 16.01 42.6 25.73 40.9.32-.06.63-.14.94-.23a11.96 11.96 0 0 1 1 4.83v13a12 12 0 0 1-10.2 11.87A56.03 56.03 0 0 1 157 180.6v9.44a28.06 28.06 0 0 0 12.5 2.95c7.62 0 14.61-3.1 20.06-8.24 1.46.16 2.94.24 4.44.24 18.39 0 34.26-12.32 41.62-30.12C241.9 149.81 246 141.45 246 132c0-1.78-.15-3.53-.43-5.22A63.91 63.91 0 0 0 249 106a62.11 62.11 0 0 0-10.05-34.27c.04-.58.05-1.15.05-1.73 0-10.96-5.5-20.44-13.53-25.04-7.31-17.6-22.73-29.97-40.77-30.9C180.27 9.07 174.2 6 167.5 6c-.95 0-1.89.06-2.81.18A83.76 83.76 0 0 0 133 0Z" fill="#ecdcbf"/></g><g transform="translate(49 72)"></g><g transform="translate(62 42)"><path fill-rule="evenodd" clip-rule="evenodd" d="M39.25 52c-21.13 0-28.63 5.17-29.32 5.86A2.93 2.93 0 0 0 7 60.79v2.92a2.93 2.93 0 0 0 2.93 2.93s5.87 0 5.87 2.93c0 .2 0 .34.03.45-.03.82-.04 1.65-.04 2.48C15.78 85.34 24.07 93 37.96 93h2.75c14.68 0 24.93-8.43 24.93-20.5 0-1.44-.04-2.88-.16-4.28l1.45-.73c.57-.28 1.2-.5 1.87-.64 1.85-.39 3.93-.23 5.95.28.73.18 1.25.36 1.5.46l1.25.5a50.58 50.58 0 0 0-.16 4.4c0 12.84 8.29 20.5 22.17 20.5h2.75c14.68 0 24.93-8.43 24.93-20.5 0-.83 0-1.66-.04-2.48.02-.11.03-.26.03-.45 0-2.93 5.87-2.93 5.87-2.93 1.62 0 2.93-1.3 2.93-2.93V60.8a2.93 2.93 0 0 0-2.93-2.93c-.69-.69-8.2-5.86-29.32-5.86h-2.93c-1.83 0-3.52.07-5.08.21-9.38.56-14.46 2.19-19.63 4.76-.54.2-2.38.79-4.53.88a16.56 16.56 0 0 1-4.77-.92l-.42-.2v-.01c-4.9-2.45-8.36-4.18-20.55-4.61-1.15-.07-2.37-.1-3.66-.1h-2.93Zm-1.12 5.86h1.12c2.44 0 4.59.03 6.48.1 14.05.84 14.05 6.95 14.05 14.54 0 8.62-7.84 14.64-19.06 14.64h-2.75c-13.5 0-16.32-7.96-16.32-14.64 0-8 0-14.37 16.48-14.64Zm26.11 4.36.1.03-.07.03-.03-.06Zm14.52 0-.07.03.04.02c0-.02 0-.03.02-.05Zm16.7-4.12a125.22 125.22 0 0 1 9.4-.24c16.49.27 16.49 6.63 16.49 14.64 0 8.62-7.84 14.64-19.07 14.64h-2.75c-13.48 0-16.31-7.96-16.31-14.64 0-7.25 0-13.15 12.24-14.4Z" fill="#000" fill-opacity=".1"/><path d="M40.72 88.07c13.74 0 22-7.87 22-17.57s-1.3-17.57-20.54-17.57h-2.93c-19.25 0-20.53 7.86-20.53 17.57 0 9.7 5.5 17.57 19.25 17.57h2.75Z" fill="#000" fill-opacity=".7"/><path d="M40.72 88.07c13.74 0 22-7.87 22-17.57s-1.3-17.57-20.54-17.57h-2.93c-19.25 0-20.53 7.86-20.53 17.57 0 9.7 5.5 17.57 19.25 17.57h2.75Z" fill="url(#accessoriesWayfarers-a)" style="mix-blend-mode:screen"/><path d="M102.28 88.07c13.75 0 22-7.87 22-17.57S123 52.93 103.75 52.93h-2.93c-19.25 0-20.53 7.86-20.53 17.57 0 9.7 5.5 17.57 19.24 17.57h2.75Z" fill="#000" fill-opacity=".7"/><path d="M102.28 88.07c13.75 0 22-7.87 22-17.57S123 52.93 103.75 52.93h-2.93c-19.25 0-20.53 7.86-20.53 17.57 0 9.7 5.5 17.57 19.24 17.57h2.75Z" fill="url(#accessoriesWayfarers-b)" style="mix-blend-mode:screen"/><path fill-rule="evenodd" clip-rule="evenodd" d="M39.25 50c-21.13 0-28.63 5.17-29.32 5.86A2.93 2.93 0 0 0 7 58.79v2.92a2.93 2.93 0 0 0 2.93 2.93s5.87 0 5.87 2.93c0 .2 0 .34.03.45-.03.82-.04 1.65-.04 2.48C15.78 83.34 24.07 91 37.96 91h2.75c14.68 0 24.93-8.43 24.93-20.5 0-1.44-.04-2.88-.16-4.28l1.45-.73c.57-.28 1.2-.5 1.87-.64 1.85-.39 3.93-.23 5.95.28.73.18 1.25.36 1.5.46l1.25.5a50.58 50.58 0 0 0-.16 4.4c0 12.84 8.29 20.5 22.17 20.5h2.75c14.68 0 24.93-8.43 24.93-20.5 0-.83 0-1.66-.04-2.48.02-.11.03-.26.03-.45 0-2.93 5.87-2.93 5.87-2.93 1.62 0 2.93-1.3 2.93-2.93V58.8a2.93 2.93 0 0 0-2.93-2.93c-.69-.69-8.2-5.86-29.32-5.86h-2.93c-1.83 0-3.52.07-5.08.21-9.38.56-14.46 2.19-19.63 4.76-.54.2-2.38.79-4.53.88a16.56 16.56 0 0 1-4.77-.92l-.42-.2v-.01c-4.9-2.45-8.36-4.18-20.55-4.61-1.15-.07-2.37-.1-3.66-.1h-2.93Zm-1.12 5.86h1.12c2.44 0 4.59.03 6.48.1 14.05.84 14.05 6.95 14.05 14.54 0 8.62-7.84 14.64-19.06 14.64h-2.75c-13.5 0-16.32-7.96-16.32-14.64 0-8 0-14.37 16.48-14.64Zm26.11 4.36.1.03-.07.03-.03-.06Zm14.52 0-.07.03.04.02c0-.02 0-.03.02-.05Zm16.7-4.12a125.22 125.22 0 0 1 9.4-.24c16.49.27 16.49 6.63 16.49 14.64 0 8.62-7.84 14.64-19.07 14.64h-2.75c-13.48 0-16.31-7.96-16.31-14.64 0-7.25 0-13.15 12.24-14.4Z" fill="#929598"/><defs><linearGradient id="accessoriesWayfarers-a" x1="80.29" y1="52.93" x2="80.29" y2="88.07" gradientUnits="userSpaceOnUse"><stop stop-color="#fff" stop-opacity=".5"/><stop offset=".71" stop-opacity=".5"/></linearGradient><linearGradient id="accessoriesWayfarers-b" x1="80.29" y1="52.93" x2="80.29" y2="88.07" gradientUnits="userSpaceOnUse"><stop stop-color="#fff" stop-opacity=".5"/><stop offset=".71" stop-opacity=".5"/></linearGradient></defs></g></g></g></svg>